<svg xmlns="http://www.w3.org/2000/svg" width="400" height="200" viewBox="0 0 400 200"><rect width="100%" height="100%" fill="#DDDDDD"/><path fill="#999999" d="m128.21 64.17-3.21 6.1q-.58 1-1.23 1.46-.64.46-1.6.46-1.01 0-2.19-.75-1.17-.74-2.81-1.65-1.63-.92-3.81-1.66-2.19-.74-5.16-.74-2.69 0-4.71.64-2.01.65-3.38 1.8-1.37 1.16-2.04 2.76-.67 1.61-.67 3.53 0 2.45 1.37 4.08 1.36 1.63 3.62 2.79 2.26 1.15 5.14 2.06 2.88.91 5.9 1.94 3.02 1.04 5.9 2.4 2.88 1.37 5.14 3.46t3.62 5.11q1.37 3.03 1.37 7.35 0 4.7-1.61 8.8-1.6 4.11-4.7 7.16-3.1 3.04-7.56 4.8-4.46 1.75-10.22 1.75-3.32 0-6.53-.65-3.22-.65-6.17-1.85-2.95-1.2-5.54-2.88-2.6-1.68-4.61-3.74l3.79-6.19q.48-.68 1.25-1.13.77-.46 1.63-.46 1.2 0 2.59.99 1.39.98 3.31 2.18 1.92 1.2 4.49 2.18 2.57.99 6.17.99 5.52 0 8.54-2.62 3.03-2.61 3.03-7.51 0-2.74-1.37-4.46-1.37-1.73-3.62-2.91-2.26-1.17-5.14-1.99-2.88-.82-5.86-1.78-2.97-.96-5.85-2.3-2.88-1.34-5.14-3.5-2.25-2.16-3.62-5.4t-1.37-8q0-3.79 1.51-7.39 1.51-3.6 4.39-6.38 2.88-2.79 7.11-4.47 4.22-1.68 9.69-1.68 6.15 0 11.33 1.92 5.19 1.92 8.83 5.38Zm22.47 28.03v22.08q2.01 2.45 4.39 3.46 2.38 1.01 5.16 1.01 2.69 0 4.85-1.01 2.16-1.01 3.67-3.07 1.51-2.07 2.33-5.21.81-3.15.81-7.42 0-4.32-.69-7.32-.7-3-1.99-4.87-1.3-1.87-3.15-2.74-1.85-.86-4.2-.86-3.69 0-6.29 1.56-2.59 1.56-4.89 4.39Zm-1.59-12.24.96 4.56q3.03-3.41 6.87-5.52 3.84-2.11 9.02-2.11 4.03 0 7.37 1.68t5.76 4.87q2.42 3.19 3.74 7.87 1.32 4.68 1.32 10.73 0 5.52-1.48 10.23-1.49 4.7-4.25 8.16-2.76 3.45-6.67 5.4-3.92 1.94-8.76 1.94-4.13 0-7.06-1.27-2.93-1.27-5.23-3.53v20.16h-11.86V77.8h7.25q2.3 0 3.02 2.16Zm66.05-2.93q5.47 0 9.96 1.78 4.49 1.78 7.68 5.04 3.19 3.26 4.92 7.97 1.73 4.7 1.73 10.51 0 5.86-1.73 10.56t-4.92 8.02q-3.19 3.31-7.68 5.08-4.49 1.78-9.96 1.78-5.52 0-10.03-1.78-4.51-1.77-7.7-5.08-3.2-3.32-4.95-8.02-1.75-4.7-1.75-10.56 0-5.81 1.75-10.51 1.75-4.71 4.95-7.97 3.19-3.26 7.7-5.04 4.51-1.78 10.03-1.78Zm0 41.62q6.15 0 9.1-4.13 2.95-4.13 2.95-12.09 0-7.97-2.95-12.15-2.95-4.17-9.1-4.17-6.24 0-9.24 4.2t-3 12.12q0 7.92 3 12.07t9.24 4.15Zm49.78 9.17q-6.43 0-9.87-3.63-3.43-3.62-3.43-10V86.68h-5.04q-.96 0-1.63-.62-.67-.63-.67-1.87v-4.71l7.92-1.29 2.49-13.44q.24-.96.92-1.49.67-.53 1.72-.53h6.15v15.5h13.15v8.45h-13.15v26.69q0 2.3 1.13 3.6 1.12 1.3 3.09 1.3 1.11 0 1.85-.27.74-.26 1.3-.55.55-.29.98-.55.43-.27.86-.27.53 0 .87.27.33.26.72.79l3.55 5.76q-2.59 2.16-5.95 3.26-3.36 1.11-6.96 1.11Zm52.03-44.69-2.69 4.27q-.48.77-1.01 1.08-.52.31-1.34.31-.86 0-1.85-.48-.98-.48-2.28-1.08-1.29-.6-2.95-1.08-1.66-.48-3.91-.48-3.51 0-5.5 1.49-1.99 1.49-1.99 3.89 0 1.58 1.03 2.66t2.74 1.9q1.7.82 3.86 1.46 2.16.65 4.39 1.42 2.24.77 4.4 1.75 2.16.99 3.86 2.5 1.7 1.51 2.74 3.62 1.03 2.11 1.03 5.09 0 3.55-1.27 6.55-1.28 3-3.77 5.19-2.5 2.18-6.17 3.4-3.67 1.23-8.47 1.23-2.55 0-4.97-.46-2.42-.45-4.66-1.27-2.23-.82-4.12-1.92-1.9-1.1-3.34-2.4l2.74-4.51q.52-.82 1.24-1.25.72-.43 1.83-.43 1.1 0 2.09.62.98.63 2.28 1.35 1.29.72 3.04 1.34 1.76.62 4.44.62 2.12 0 3.63-.5 1.51-.5 2.49-1.32.99-.82 1.44-1.9.46-1.08.46-2.23 0-1.73-1.03-2.83t-2.74-1.92q-1.7-.82-3.89-1.46-2.18-.65-4.46-1.42-2.28-.77-4.46-1.8-2.19-1.03-3.89-2.62-1.71-1.58-2.74-3.88-1.03-2.31-1.03-5.57 0-3.03 1.2-5.76 1.2-2.74 3.53-4.78t5.81-3.26q3.48-1.23 8.04-1.23 5.08 0 9.26 1.68t6.96 4.42Z"/></svg>