<svg xmlns="http://www.w3.org/2000/svg" width="500" height="400" viewBox="0 0 500 400"><rect width="100%" height="100%" fill="#DDDDDD"/><path fill="#999999" d="m160.27 155.21-4.02 7.62q-.72 1.26-1.53 1.83-.81.57-2.01.57-1.26 0-2.73-.93t-3.51-2.07q-2.04-1.14-4.77-2.07-2.73-.93-6.45-.93-3.36 0-5.88.81t-4.23 2.25q-1.71 1.44-2.55 3.45-.84 2.01-.84 4.41 0 3.06 1.71 5.1 1.71 2.04 4.53 3.48 2.82 1.44 6.42 2.58 3.6 1.14 7.38 2.43 3.78 1.29 7.38 3t6.42 4.32q2.82 2.61 4.53 6.39 1.71 3.78 1.71 9.18 0 5.88-2.01 11.01t-5.88 8.94q-3.87 3.81-9.45 6-5.58 2.19-12.78 2.19-4.14 0-8.16-.81-4.02-.81-7.71-2.31-3.69-1.5-6.93-3.6-3.24-2.1-5.76-4.68l4.74-7.74q.6-.84 1.56-1.41.96-.57 2.04-.57 1.5 0 3.24 1.23 1.74 1.23 4.14 2.73 2.4 1.5 5.61 2.73 3.21 1.23 7.71 1.23 6.9 0 10.68-3.27 3.78-3.27 3.78-9.39 0-3.42-1.71-5.58t-4.53-3.63q-2.82-1.47-6.42-2.49-3.6-1.02-7.32-2.22-3.72-1.2-7.32-2.88t-6.42-4.38q-2.82-2.7-4.53-6.75-1.71-4.05-1.71-9.99 0-4.74 1.89-9.24t5.49-7.98q3.6-3.48 8.88-5.58 5.28-2.1 12.12-2.1 7.68 0 14.16 2.4t11.04 6.72Zm28.08 35.04v27.6q2.52 3.06 5.49 4.32 2.97 1.26 6.45 1.26 3.36 0 6.06-1.26 2.7-1.26 4.59-3.84 1.89-2.58 2.91-6.51 1.02-3.93 1.02-9.27 0-5.4-.87-9.15t-2.49-6.09q-1.62-2.34-3.93-3.42t-5.25-1.08q-4.62 0-7.86 1.95t-6.12 5.49Zm-1.98-15.3 1.2 5.7q3.78-4.26 8.58-6.9 4.8-2.64 11.28-2.64 5.04 0 9.21 2.1 4.17 2.1 7.2 6.09 3.03 3.99 4.68 9.84t1.65 13.41q0 6.9-1.86 12.78-1.86 5.88-5.31 10.2-3.45 4.32-8.34 6.75-4.89 2.43-10.95 2.43-5.16 0-8.82-1.59t-6.54-4.41v25.2h-14.82v-81.66h9.06q2.88 0 3.78 2.7Zm82.56-3.66q6.84 0 12.45 2.22 5.61 2.22 9.6 6.3 3.99 4.08 6.15 9.96 2.16 5.88 2.16 13.14 0 7.32-2.16 13.2-2.16 5.88-6.15 10.02t-9.6 6.36q-5.61 2.22-12.45 2.22-6.9 0-12.54-2.22-5.64-2.22-9.63-6.36-3.99-4.14-6.18-10.02-2.19-5.88-2.19-13.2 0-7.26 2.19-13.14 2.19-5.88 6.18-9.96 3.99-4.08 9.63-6.3 5.64-2.22 12.54-2.22Zm0 52.02q7.68 0 11.37-5.16 3.69-5.16 3.69-15.12 0-9.96-3.69-15.18-3.69-5.22-11.37-5.22-7.8 0-11.55 5.25-3.75 5.25-3.75 15.15t3.75 15.09q3.75 5.19 11.55 5.19Zm62.22 11.46q-8.04 0-12.33-4.53-4.29-4.53-4.29-12.51v-34.38h-6.3q-1.2 0-2.04-.78-.84-.78-.84-2.34v-5.88l9.9-1.62 3.12-16.8q.3-1.2 1.14-1.86.84-.66 2.16-.66h7.68v19.38h16.44v10.56h-16.44v33.36q0 2.88 1.41 4.5t3.87 1.62q1.38 0 2.31-.33.93-.33 1.62-.69.69-.36 1.23-.69.54-.33 1.08-.33.66 0 1.08.33.42.33.9.99l4.44 7.2q-3.24 2.7-7.44 4.08t-8.7 1.38Zm65.04-55.86-3.36 5.34q-.6.96-1.26 1.35-.66.39-1.68.39-1.08 0-2.31-.6t-2.85-1.35q-1.62-.75-3.69-1.35-2.07-.6-4.89-.6-4.38 0-6.87 1.86t-2.49 4.86q0 1.98 1.29 3.33t3.42 2.37q2.13 1.02 4.83 1.83t5.49 1.77q2.79.96 5.49 2.19t4.83 3.12q2.13 1.89 3.42 4.53 1.29 2.64 1.29 6.36 0 4.44-1.59 8.19-1.59 3.75-4.71 6.48-3.12 2.73-7.71 4.26-4.59 1.53-10.59 1.53-3.18 0-6.21-.57t-5.82-1.59q-2.79-1.02-5.16-2.4t-4.17-3l3.42-5.64q.66-1.02 1.56-1.56t2.28-.54q1.38 0 2.61.78t2.85 1.68q1.62.9 3.81 1.68 2.19.78 5.55.78 2.64 0 4.53-.63 1.89-.63 3.12-1.65 1.23-1.02 1.8-2.37.57-1.35.57-2.79 0-2.16-1.29-3.54t-3.42-2.4q-2.13-1.02-4.86-1.83-2.73-.81-5.58-1.77t-5.58-2.25q-2.73-1.29-4.86-3.27-2.13-1.98-3.42-4.86-1.29-2.88-1.29-6.96 0-3.78 1.5-7.2 1.5-3.42 4.41-5.97t7.26-4.08q4.35-1.53 10.05-1.53 6.36 0 11.58 2.1t8.7 5.52Z"/></svg>