<svg xmlns="http://www.w3.org/2000/svg" width="600" height="200" viewBox="0 0 600 200"><rect width="100%" height="100%" fill="#DDDDDD"/><path fill="#999999" d="M145.93 82.28h-17.34v11.55h14.64v5.81h-14.64v15.9h-7.29V76.5h24.63v5.78Zm10.77 7.23.4 3.13q1.3-2.48 3.08-3.9 1.78-1.41 4.21-1.41 1.92 0 3.08.83l-.43 5q-.14.48-.39.69-.26.2-.69.2-.41 0-1.2-.14-.8-.13-1.55-.13-1.11 0-1.98.32-.86.33-1.55.93-.69.61-1.21 1.47-.53.87-.99 1.98v17.06h-6.67v-27.7h3.92q1.02 0 1.43.36.4.37.54 1.31Zm19.52 8.99h12.58q0-1.29-.36-2.44-.37-1.15-1.1-2.01-.73-.87-1.85-1.37-1.12-.5-2.6-.5-2.89 0-4.55 1.65-1.66 1.65-2.12 4.67Zm17.01 4.03h-17.15q.17 2.13.76 3.68.59 1.55 1.57 2.57.97 1.01 2.31 1.51 1.33.5 2.95.5t2.8-.38q1.17-.38 2.05-.84.88-.46 1.54-.83.66-.38 1.28-.38.84 0 1.24.62l1.92 2.43q-1.11 1.3-2.49 2.17-1.37.88-2.87 1.41-1.5.52-3.05.74-1.55.21-3.01.21-2.89 0-5.38-.95-2.48-.96-4.32-2.84-1.83-1.87-2.88-4.64-1.06-2.77-1.06-6.42 0-2.83.92-5.33.92-2.49 2.63-4.34 1.72-1.85 4.19-2.93 2.47-1.08 5.57-1.08 2.62 0 4.84.83 2.21.84 3.8 2.45 1.6 1.6 2.5 3.94.91 2.33.91 5.33 0 1.51-.33 2.04-.32.53-1.24.53Zm21.19 5.85v-4.67q-2.88.14-4.86.5-1.97.37-3.15.94-1.19.56-1.71 1.32-.51.75-.51 1.65 0 1.75 1.04 2.51 1.04.75 2.71.75 2.06 0 3.56-.74 1.49-.74 2.92-2.26Zm-14.09-14.55-1.19-2.13q4.78-4.37 11.5-4.37 2.43 0 4.35.79 1.92.8 3.24 2.22 1.32 1.41 2.01 3.38.69 1.98.69 4.32v17.5h-3.02q-.95 0-1.46-.28-.51-.29-.81-1.15l-.59-2q-1.06.95-2.06 1.66-1 .72-2.08 1.2-1.08.49-2.3.75-1.23.25-2.72.25-1.75 0-3.24-.47-1.48-.47-2.56-1.42-1.08-.94-1.68-2.35-.59-1.4-.59-3.26 0-1.06.35-2.1t1.15-1.98q.79-.95 2.06-1.78 1.27-.84 3.12-1.46t4.31-1.01q2.46-.39 5.61-.48v-1.62q0-2.78-1.18-4.11-1.19-1.34-3.43-1.34-1.62 0-2.69.38-1.07.38-1.88.85-.81.47-1.47.85-.66.38-1.47.38-.7 0-1.19-.37-.48-.36-.78-.85Zm26.87-18.41h6.66V98.4h1.25q.67 0 1.06-.18t.8-.72l6.88-8.5q.44-.57.96-.87.53-.29 1.37-.29h6.1l-8.61 10.29q-.92 1.21-2 1.86.56.4 1.01.94.45.54.85 1.16l9.23 13.45h-6.02q-.78 0-1.35-.26-.56-.25-.94-.93l-7.08-10.5q-.37-.62-.78-.81-.4-.19-1.21-.19h-1.52v12.69h-6.66V75.42Zm48.68 12.42h5.34l-15.09 35.31q-.3.71-.77 1.07-.47.36-1.44.36h-4.97l5.18-11.12-11.2-25.62h5.86q.78 0 1.22.38.45.37.67.86l5.88 14.36q.3.73.5 1.46t.39 1.49q.25-.76.49-1.5t.54-1.47l5.56-14.34q.22-.54.72-.89t1.12-.35Zm47.46-5.56h-17.33v11.55h14.63v5.81h-14.63v15.9h-7.29V76.5h24.62v5.78Zm19.52 26.1v-4.67q-2.89.14-4.86.5-1.97.37-3.16.94-1.18.56-1.7 1.32-.51.75-.51 1.65 0 1.75 1.04 2.51 1.04.75 2.71.75 2.06 0 3.55-.74 1.5-.74 2.93-2.26Zm-14.09-14.55-1.19-2.13q4.78-4.37 11.5-4.37 2.43 0 4.35.79 1.92.8 3.24 2.22 1.32 1.41 2.01 3.38.69 1.98.69 4.32v17.5h-3.02q-.95 0-1.46-.28-.51-.29-.81-1.15l-.6-2q-1.05.95-2.05 1.66-1 .72-2.08 1.2-1.08.49-2.3.75-1.23.25-2.72.25-1.75 0-3.24-.47-1.48-.47-2.56-1.42-1.08-.94-1.68-2.35-.59-1.4-.59-3.26 0-1.06.35-2.1t1.15-1.98q.79-.95 2.06-1.78 1.27-.84 3.12-1.46t4.31-1.01q2.45-.39 5.61-.48v-1.62q0-2.78-1.18-4.11-1.19-1.34-3.43-1.34-1.62 0-2.69.38-1.07.38-1.88.85-.81.47-1.47.85-.66.38-1.47.38-.7 0-1.19-.37-.48-.36-.78-.85Zm45.28-2.99-1.51 2.4q-.27.43-.57.61-.3.17-.76.17-.48 0-1.04-.27-.55-.27-1.28-.61-.73-.33-1.66-.6-.93-.27-2.2-.27-1.97 0-3.09.83-1.12.84-1.12 2.19 0 .89.58 1.5t1.54 1.07q.96.45 2.17.82 1.22.36 2.47.79 1.26.44 2.47.99 1.22.55 2.18 1.4.95.86 1.54 2.04.58 1.19.58 2.86 0 2-.72 3.69t-2.12 2.92q-1.4 1.23-3.47 1.91-2.06.69-4.76.69-1.44 0-2.8-.25-1.36-.26-2.62-.72-1.25-.46-2.32-1.08-1.07-.62-1.88-1.35l1.54-2.54q.3-.46.7-.7.41-.24 1.03-.24.62 0 1.18.35.55.35 1.28.75.73.41 1.71.76.99.35 2.5.35 1.19 0 2.04-.28.85-.29 1.4-.74.56-.46.81-1.07.26-.61.26-1.26 0-.97-.58-1.59-.58-.62-1.54-1.08-.96-.46-2.19-.82-1.23-.37-2.51-.8-1.28-.43-2.51-1.01-1.23-.58-2.19-1.47t-1.54-2.19q-.58-1.3-.58-3.13 0-1.7.68-3.24.67-1.54 1.98-2.69t3.27-1.84q1.96-.68 4.52-.68 2.86 0 5.21.94 2.35.95 3.92 2.49Zm11.99-15.42v15.39q1.62-1.51 3.56-2.46 1.94-.94 4.56-.94 2.27 0 4.03.77 1.75.77 2.93 2.16 1.17 1.39 1.78 3.32.61 1.93.61 4.25v17.63h-6.67V97.91q0-2.54-1.16-3.93-1.17-1.39-3.54-1.39-1.73 0-3.24.78-1.51.79-2.86 2.14v20.03h-6.67V75.42h6.67Zm24 12.42h6.7v27.7h-6.7v-27.7Zm7.61-8.07q0 .86-.35 1.61-.35.76-.93 1.33-.58.56-1.36.9-.79.34-1.68.34-.86 0-1.63-.34-.77-.34-1.34-.9-.56-.57-.9-1.33-.34-.75-.34-1.61 0-.9.34-1.68.34-.78.9-1.35.57-.57 1.34-.9.77-.34 1.63-.34.89 0 1.68.34.78.33 1.36.9.58.57.93 1.35.35.78.35 1.68Zm18.15 7.64q3.08 0 5.6 1 2.52.99 4.32 2.83 1.8 1.84 2.77 4.48.97 2.65.97 5.92 0 3.29-.97 5.94-.97 2.64-2.77 4.5-1.8 1.87-4.32 2.87-2.52.99-5.6.99-3.11 0-5.65-.99-2.53-1-4.33-2.87-1.79-1.86-2.78-4.5-.99-2.65-.99-5.94 0-3.27.99-5.92.99-2.64 2.78-4.48 1.8-1.84 4.33-2.83 2.54-1 5.65-1Zm0 23.41q3.45 0 5.11-2.33 1.66-2.32 1.66-6.8t-1.66-6.83q-1.66-2.35-5.11-2.35-3.51 0-5.2 2.36-1.69 2.36-1.69 6.82 0 4.45 1.69 6.79t5.2 2.34Zm24.54-21.77.46 2.19q.84-.84 1.77-1.55.93-.72 1.97-1.22t2.23-.78q1.18-.28 2.59-.28 2.27 0 4.02.77 1.76.77 2.93 2.16 1.18 1.39 1.78 3.32.61 1.93.61 4.25v17.63h-6.67V97.91q0-2.54-1.16-3.93-1.16-1.39-3.54-1.39-1.72 0-3.24.78-1.51.79-2.86 2.14v20.03h-6.67v-27.7h4.08q1.3 0 1.7 1.21Z"/></svg>